<svg width="101" height="83" viewBox="0 0 101 83" fill="none" xmlns="http://www.w3.org/2000/svg">
<g filter="url(#filter0_f_0_1)">
<rect x="5" y="13" width="91" height="58" fill="#F0A500" fill-opacity="0.5"/>
<rect x="5" y="13" width="91" height="58" stroke="black"/>
</g>
<path d="M38.24 17.955C37.98 18.015 37.725 18.045 37.475 18.045C37.235 18.045 36.995 18.03 36.755 18C36.695 17.72 36.665 17.44 36.665 17.16C36.665 16.87 36.675 16.655 36.695 16.515C36.915 16.465 37.145 16.44 37.385 16.44C37.635 16.44 37.9 16.45 38.18 16.47C38.24 16.73 38.27 16.985 38.27 17.235C38.27 17.475 38.26 17.715 38.24 17.955ZM35.51 19.53C36.36 19.38 37.02 19.305 37.49 19.305C37.96 19.305 38.26 19.315 38.39 19.335C38.39 19.575 38.36 19.84 38.3 20.13C38.24 20.42 38.205 20.56 38.195 20.55L38.06 25.98L39.32 26.1C39.32 26.38 39.235 26.68 39.065 27H35.615L35.57 26.475C36.03 26.315 36.48 26.195 36.92 26.115C36.86 23.615 36.81 21.74 36.77 20.49C36.19 20.49 35.75 20.43 35.45 20.31L35.51 19.53ZM44.1143 26.085L45.4493 26.055C46.8293 26.055 47.5193 26.625 47.5193 27.765C47.5193 28.295 47.2893 28.785 46.8293 29.235C46.3793 29.695 45.8393 30.04 45.2093 30.27C44.5793 30.5 43.9893 30.615 43.4393 30.615C42.8993 30.615 42.3943 30.535 41.9243 30.375C41.4543 30.225 41.0543 29.975 40.7243 29.625C40.3943 29.275 40.2293 28.87 40.2293 28.41C40.2293 28.3 40.4043 28.01 40.7543 27.54C41.1143 27.08 41.3493 26.81 41.4593 26.73C41.3693 26.67 41.1943 26.5 40.9343 26.22C40.6743 25.93 40.5293 25.73 40.4993 25.62C40.7493 25.16 41.1443 24.71 41.6843 24.27C40.8843 23.79 40.4843 23 40.4843 21.9C40.4843 21.02 40.7643 20.35 41.3243 19.89C41.8843 19.43 42.5843 19.2 43.4243 19.2C44.2643 19.2 44.9143 19.335 45.3743 19.605C46.1743 19.445 46.9593 19.365 47.7293 19.365C47.9193 19.365 48.0143 19.48 48.0143 19.71C48.0143 20.11 47.9393 20.385 47.7893 20.535L46.0643 20.25C46.4243 20.71 46.6043 21.26 46.6043 21.9C46.6043 22.9 46.3093 23.62 45.7193 24.06C45.1293 24.49 44.4043 24.705 43.5443 24.705C43.2743 24.705 42.9543 24.67 42.5843 24.6C42.4343 24.91 42.2443 25.245 42.0143 25.605C42.1943 25.925 42.8943 26.085 44.1143 26.085ZM46.0193 28.845C46.1193 28.565 46.1693 28.275 46.1693 27.975C46.1693 27.685 46.0543 27.45 45.8243 27.27C45.5943 27.09 45.2993 27 44.9393 27C43.5093 27 42.6343 26.985 42.3143 26.955C42.0443 27.385 41.8543 27.745 41.7443 28.035C41.6443 28.335 41.5943 28.505 41.5943 28.545C41.5943 28.935 41.7793 29.225 42.1493 29.415C42.5193 29.605 42.9443 29.7 43.4243 29.7C43.9143 29.7 44.4043 29.62 44.8943 29.46C45.3943 29.3 45.7693 29.095 46.0193 28.845ZM45.2543 21.96C45.2543 20.72 44.6843 20.1 43.5443 20.1C42.4043 20.1 41.8343 20.7 41.8343 21.9C41.8343 22.51 41.9843 22.98 42.2843 23.31C42.5843 23.64 43.0193 23.805 43.5893 23.805C44.6993 23.805 45.2543 23.19 45.2543 21.96ZM50.9261 15.855C51.2361 15.855 51.4561 15.865 51.5861 15.885C51.5861 16.065 51.5561 16.3 51.4961 16.59C51.4461 16.87 51.4111 17.035 51.3911 17.085C51.3911 17.305 51.3811 17.76 51.3611 18.45C51.3411 19.14 51.3311 19.675 51.3311 20.055C51.7611 19.825 52.1861 19.625 52.6061 19.455C53.0361 19.285 53.3061 19.2 53.4161 19.2C54.3761 19.2 55.0711 19.44 55.5011 19.92C55.9311 20.39 56.1461 21.11 56.1461 22.08C56.1461 22.36 56.1061 23.66 56.0261 25.98L57.2861 26.1C57.2861 26.38 57.2011 26.68 57.0311 27H53.5811L53.5361 26.475C53.9961 26.315 54.4461 26.195 54.8861 26.115C54.8261 23.495 54.7711 22.04 54.7211 21.75C54.6811 21.45 54.6111 21.19 54.5111 20.97C54.4111 20.75 54.2611 20.595 54.0611 20.505C53.8611 20.415 53.5961 20.37 53.2661 20.37C52.5861 20.37 51.9361 20.53 51.3161 20.85L51.2261 25.98L52.4861 26.1C52.4861 26.38 52.4011 26.68 52.2311 27H48.7811L48.7361 26.475C49.1961 26.315 49.6461 26.195 50.0861 26.115L49.9061 17.04C49.3561 17.01 48.9161 16.95 48.5861 16.86L48.6461 16.08C49.1561 15.93 49.9161 15.855 50.9261 15.855ZM59.1939 26.07L59.0739 20.415H57.9189L57.8739 19.89C57.9739 19.82 58.2639 19.69 58.7439 19.5L59.9739 17.58C60.1739 17.6 60.3289 17.65 60.4389 17.73L60.4239 19.38C61.1739 19.38 61.7889 19.43 62.2689 19.53C62.2689 19.8 62.1839 20.095 62.0139 20.415H60.3939C60.3739 21.615 60.3539 23.435 60.3339 25.875C60.8939 25.905 61.4539 26.005 62.0139 26.175L61.9989 26.7C61.8589 26.79 61.4989 26.895 60.9189 27.015C60.3489 27.135 59.8789 27.195 59.5089 27.195C59.4589 27.115 59.3939 26.945 59.3139 26.685C59.2339 26.415 59.1939 26.21 59.1939 26.07Z" fill="#082032"/>
<path d="M38.24 17.955L38.3524 18.4422L38.708 18.3601L38.7383 17.9965L38.24 17.955ZM36.755 18L36.2661 18.1048L36.3405 18.4521L36.693 18.4961L36.755 18ZM36.695 16.515L36.5842 16.0274L36.2487 16.1037L36.2 16.4443L36.695 16.515ZM38.18 16.47L38.6672 16.3576L38.5841 15.9976L38.2156 15.9713L38.18 16.47ZM35.51 19.53L35.4231 19.0376L35.0412 19.105L35.0115 19.4917L35.51 19.53ZM38.39 19.335H38.89V18.906L38.466 18.8408L38.39 19.335ZM38.3 20.13L37.8104 20.0287L38.3 20.13ZM38.195 20.55L38.5486 20.1964L37.7241 19.372L37.6952 20.5376L38.195 20.55ZM38.06 25.98L37.5602 25.9676L37.5486 26.4336L38.0126 26.4777L38.06 25.98ZM39.32 26.1H39.82V25.6454L39.3674 25.6023L39.32 26.1ZM39.065 27V27.5H39.3656L39.5066 27.2346L39.065 27ZM35.615 27L35.1168 27.0427L35.156 27.5H35.615V27ZM35.57 26.475L35.4057 26.0028L35.0386 26.1304L35.0718 26.5177L35.57 26.475ZM36.92 26.115L37.0094 26.6069L37.4301 26.5304L37.4199 26.103L36.92 26.115ZM36.77 20.49L37.2697 20.474L37.2543 19.99H36.77V20.49ZM35.45 20.31L34.9515 20.2717L34.9233 20.6378L35.2643 20.7742L35.45 20.31ZM38.1276 17.4678C37.902 17.5199 37.6847 17.545 37.475 17.545V18.545C37.7653 18.545 38.058 18.5101 38.3524 18.4422L38.1276 17.4678ZM37.475 17.545C37.2559 17.545 37.0366 17.5313 36.817 17.5039L36.693 18.4961C36.9534 18.5287 37.2141 18.545 37.475 18.545V17.545ZM37.2439 17.8952C37.1911 17.6489 37.165 17.404 37.165 17.16H36.165C36.165 17.476 36.1989 17.7911 36.2661 18.1048L37.2439 17.8952ZM37.165 17.16C37.165 16.8745 37.1752 16.6889 37.19 16.5857L36.2 16.4443C36.1748 16.6211 36.165 16.8655 36.165 17.16H37.165ZM36.8058 17.0026C36.9872 16.9613 37.1799 16.94 37.385 16.94V15.94C37.1101 15.94 36.8428 15.9687 36.5842 16.0274L36.8058 17.0026ZM37.385 16.94C37.6218 16.94 37.8748 16.9495 38.1444 16.9687L38.2156 15.9713C37.9252 15.9505 37.6482 15.94 37.385 15.94V16.94ZM37.6928 16.5824C37.7449 16.808 37.77 17.0253 37.77 17.235H38.77C38.77 16.9447 38.7351 16.652 38.6672 16.3576L37.6928 16.5824ZM37.77 17.235C37.77 17.4611 37.7606 17.6872 37.7417 17.9135L38.7383 17.9965C38.7594 17.7428 38.77 17.4889 38.77 17.235H37.77ZM35.5969 20.0224C36.4377 19.874 37.0639 19.805 37.49 19.805V18.805C36.9761 18.805 36.2823 18.886 35.4231 19.0376L35.5969 20.0224ZM37.49 19.805C37.9714 19.805 38.2296 19.8162 38.314 19.8292L38.466 18.8408C38.2904 18.8138 37.9486 18.805 37.49 18.805V19.805ZM37.89 19.335C37.89 19.5342 37.865 19.7646 37.8104 20.0287L38.7896 20.2313C38.855 19.9154 38.89 19.6158 38.89 19.335H37.89ZM37.8104 20.0287C37.7806 20.1724 37.7586 20.2716 37.7437 20.3312C37.7355 20.3639 37.7327 20.3716 37.7347 20.3658C37.7356 20.3633 37.738 20.3563 37.7421 20.3466C37.7453 20.3389 37.7543 20.3181 37.7695 20.2924C37.7753 20.2825 37.8216 20.1996 37.9198 20.1341C37.9772 20.0959 38.0826 20.0436 38.223 20.0512C38.3716 20.0593 38.4819 20.1298 38.5486 20.1964L37.8414 20.9036C37.9087 20.9708 38.0197 21.0417 38.169 21.0498C38.3101 21.0574 38.4164 21.0049 38.4745 20.9661C38.5744 20.8996 38.6225 20.8144 38.6304 20.8011C38.6597 20.7515 38.6755 20.7051 38.6797 20.6929C38.6929 20.6547 38.7045 20.6111 38.7138 20.5738C38.7339 20.4934 38.7594 20.3776 38.7896 20.2313L37.8104 20.0287ZM37.6952 20.5376L37.5602 25.9676L38.5598 25.9924L38.6948 20.5624L37.6952 20.5376ZM38.0126 26.4777L39.2726 26.5977L39.3674 25.6023L38.1074 25.4823L38.0126 26.4777ZM38.82 26.1C38.82 26.2777 38.766 26.497 38.6234 26.7654L39.5066 27.2346C39.704 26.863 39.82 26.4823 39.82 26.1H38.82ZM39.065 26.5H35.615V27.5H39.065V26.5ZM36.1132 26.9573L36.0682 26.4323L35.0718 26.5177L35.1168 27.0427L36.1132 26.9573ZM35.7343 26.9472C36.172 26.795 36.597 26.6819 37.0094 26.6069L36.8306 25.6231C36.363 25.7081 35.888 25.835 35.4057 26.0028L35.7343 26.9472ZM37.4199 26.103C37.3598 23.6027 37.3098 21.7261 37.2697 20.474L36.2703 20.506C36.3102 21.7539 36.3602 23.6273 36.4201 26.127L37.4199 26.103ZM36.77 19.99C36.2112 19.99 35.8471 19.9303 35.6357 19.8458L35.2643 20.7742C35.6529 20.9297 36.1688 20.99 36.77 20.99V19.99ZM35.9485 20.3483L36.0085 19.5683L35.0115 19.4917L34.9515 20.2717L35.9485 20.3483ZM44.1143 26.085V26.5851L44.1255 26.5849L44.1143 26.085ZM45.4493 26.055V25.5549L45.438 25.5551L45.4493 26.055ZM46.8293 29.235L46.4795 28.8775L46.4718 28.8854L46.8293 29.235ZM45.2093 30.27L45.3807 30.7397L45.2093 30.27ZM41.9243 30.375L42.0854 29.9016L42.0763 29.8987L41.9243 30.375ZM40.7243 29.625L40.3605 29.968L40.7243 29.625ZM40.7543 27.54L40.3604 27.2318L40.3532 27.2414L40.7543 27.54ZM41.4593 26.73L41.7533 27.1344L42.3339 26.7122L41.7366 26.314L41.4593 26.73ZM40.9343 26.22L40.5619 26.5538L40.5679 26.5602L40.9343 26.22ZM40.4993 25.62L40.0599 25.3812L39.964 25.5577L40.0169 25.7516L40.4993 25.62ZM41.6843 24.27L42.0001 24.6576L42.5523 24.2077L41.9415 23.8413L41.6843 24.27ZM41.3243 19.89L41.6416 20.2764L41.3243 19.89ZM45.3743 19.605L45.1212 20.0362L45.2855 20.1327L45.4723 20.0953L45.3743 19.605ZM47.7893 20.535L47.7078 21.0283L47.9612 21.0702L48.1428 20.8886L47.7893 20.535ZM46.0643 20.25L46.1458 19.7567L44.8795 19.5475L45.6705 20.5582L46.0643 20.25ZM45.7193 24.06L46.0138 24.4641L46.0182 24.4608L45.7193 24.06ZM42.5843 24.6L42.6772 24.1087L42.301 24.0375L42.1342 24.3822L42.5843 24.6ZM42.0143 25.605L41.5929 25.3358L41.4314 25.5886L41.5785 25.8501L42.0143 25.605ZM46.0193 28.845L46.3728 29.1986L46.4523 29.1191L46.4901 29.0132L46.0193 28.845ZM45.8243 27.27L46.1324 26.8762L45.8243 27.27ZM42.3143 26.955L42.3609 26.4572L42.0545 26.4285L41.8908 26.6891L42.3143 26.955ZM41.7443 28.035L41.2768 27.8577L41.2731 27.8672L41.2699 27.8769L41.7443 28.035ZM42.1493 29.415L41.9209 29.8598L42.1493 29.415ZM44.8943 29.46L44.7419 28.9838L44.7391 28.9847L44.8943 29.46ZM42.2843 23.31L41.9143 23.6463H41.9143L42.2843 23.31ZM44.1255 26.5849L45.4605 26.5549L45.438 25.5551L44.103 25.5851L44.1255 26.5849ZM45.4493 26.555C46.083 26.555 46.4652 26.6878 46.6833 26.868C46.8831 27.033 47.0193 27.2999 47.0193 27.765H48.0193C48.0193 27.0901 47.8104 26.502 47.3202 26.097C46.8483 25.7072 46.1956 25.555 45.4493 25.555V26.555ZM47.0193 27.765C47.0193 28.1325 46.8655 28.5001 46.4796 28.8776L47.1789 29.5924C47.713 29.0699 48.0193 28.4575 48.0193 27.765H47.0193ZM46.4718 28.8854C46.0763 29.2897 45.6007 29.5948 45.0378 29.8003L45.3807 30.7397C46.0779 30.4852 46.6822 30.1003 47.1867 29.5846L46.4718 28.8854ZM45.0378 29.8003C44.4511 30.0145 43.9195 30.115 43.4393 30.115V31.115C44.059 31.115 44.7074 30.9855 45.3807 30.7397L45.0378 29.8003ZM43.4393 30.115C42.9493 30.115 42.4992 30.0425 42.0854 29.9017L41.7631 30.8483C42.2894 31.0275 42.8492 31.115 43.4393 31.115V30.115ZM42.0763 29.8987C41.6849 29.7738 41.3584 29.5687 41.0881 29.282L40.3605 29.968C40.7501 30.3813 41.2236 30.6762 41.7722 30.8513L42.0763 29.8987ZM41.0881 29.282C40.8411 29.0201 40.7293 28.7362 40.7293 28.41H39.7293C39.7293 29.0038 39.9474 29.5299 40.3605 29.968L41.0881 29.282ZM40.7293 28.41C40.7293 28.4906 40.704 28.531 40.7201 28.4942C40.7299 28.4718 40.7507 28.4312 40.7886 28.3683C40.8639 28.2436 40.9841 28.0685 41.1553 27.8386L40.3532 27.2414C40.1744 27.4815 40.0322 27.6864 39.9324 27.8517C39.8828 27.9338 39.838 28.0157 39.804 28.0933C39.7764 28.1565 39.7293 28.2744 39.7293 28.41H40.7293ZM41.148 27.8482C41.3255 27.6213 41.4683 27.4464 41.5777 27.3208C41.6324 27.2579 41.676 27.2105 41.7094 27.1766C41.746 27.1395 41.7589 27.1304 41.7533 27.1344L41.1652 26.3256C41.0583 26.4034 40.9381 26.5323 40.8234 26.6642C40.6977 26.8086 40.543 26.9987 40.3605 27.2318L41.148 27.8482ZM41.7366 26.314C41.7391 26.3156 41.7292 26.309 41.7036 26.2868C41.6796 26.266 41.6483 26.2372 41.6089 26.1989C41.53 26.1222 41.4277 26.0166 41.3007 25.8798L40.5679 26.5602C40.7008 26.7034 40.816 26.8228 40.9121 26.9161C41.0013 27.0027 41.0956 27.0885 41.1819 27.146L41.7366 26.314ZM41.3065 25.8862C41.1823 25.7477 41.0936 25.6395 41.0353 25.559C41.0063 25.5189 40.9885 25.4909 40.9787 25.4736C40.9672 25.4531 40.974 25.4603 40.9816 25.4884L40.0169 25.7516C40.0575 25.9006 40.1494 26.0407 40.2257 26.146C40.3124 26.2655 40.4262 26.4023 40.562 26.5538L41.3065 25.8862ZM40.9386 25.8588C41.1491 25.4714 41.4948 25.0694 42.0001 24.6576L41.3684 23.8824C40.7937 24.3506 40.3494 24.8486 40.0599 25.3812L40.9386 25.8588ZM41.9415 23.8413C41.3214 23.4692 40.9843 22.8614 40.9843 21.9H39.9843C39.9843 23.1386 40.4471 24.1108 41.427 24.6987L41.9415 23.8413ZM40.9843 21.9C40.9843 21.1343 41.222 20.621 41.6416 20.2764L41.0069 19.5036C40.3065 20.079 39.9843 20.9057 39.9843 21.9H40.9843ZM41.6416 20.2764C42.0983 19.9013 42.6806 19.7 43.4243 19.7V18.7C42.4879 18.7 41.6702 18.9587 41.0069 19.5036L41.6416 20.2764ZM43.4243 19.7C44.2218 19.7 44.77 19.8301 45.1212 20.0362L45.6274 19.1738C45.0586 18.8399 44.3067 18.7 43.4243 18.7V19.7ZM45.4723 20.0953C46.2419 19.9414 46.9941 19.865 47.7293 19.865V18.865C46.9244 18.865 46.1066 18.9486 45.2762 19.1147L45.4723 20.0953ZM47.7293 19.865C47.7273 19.865 47.7029 19.8648 47.6668 19.8502C47.6277 19.8344 47.5884 19.8071 47.5575 19.7697C47.5002 19.7003 47.5143 19.6513 47.5143 19.71H48.5143C48.5143 19.5387 48.4808 19.3172 48.3285 19.1328C48.161 18.9301 47.9292 18.865 47.7293 18.865V19.865ZM47.5143 19.71C47.5143 19.8819 47.4978 20.0034 47.4756 20.0847C47.4534 20.166 47.4316 20.1856 47.4357 20.1814L48.1428 20.8886C48.4411 20.5903 48.5143 20.1377 48.5143 19.71H47.5143ZM47.8708 20.0417L46.1458 19.7567L45.9828 20.7433L47.7078 21.0283L47.8708 20.0417ZM45.6705 20.5582C45.955 20.9216 46.1043 21.3604 46.1043 21.9H47.1043C47.1043 21.1596 46.8935 20.4984 46.458 19.9418L45.6705 20.5582ZM46.1043 21.9C46.1043 22.8032 45.8418 23.3449 45.4203 23.6592L46.0182 24.4608C46.7767 23.8951 47.1043 22.9968 47.1043 21.9H46.1043ZM45.4248 23.6559C44.9348 24.013 44.3178 24.205 43.5443 24.205V25.205C44.4907 25.205 45.3238 24.967 46.0138 24.4641L45.4248 23.6559ZM43.5443 24.205C43.3149 24.205 43.0276 24.175 42.6772 24.1087L42.4913 25.0913C42.881 25.165 43.2336 25.205 43.5443 25.205V24.205ZM42.1342 24.3822C41.9945 24.6709 41.8147 24.9886 41.5929 25.3358L42.4356 25.8742C42.6738 25.5014 42.874 25.1491 43.0343 24.8178L42.1342 24.3822ZM41.5785 25.8501C41.7801 26.2086 42.1923 26.3677 42.5628 26.4524C42.966 26.5446 43.4889 26.585 44.1143 26.585V25.585C43.5196 25.585 43.0825 25.5454 42.7857 25.4776C42.4562 25.4023 42.4284 25.3214 42.45 25.3599L41.5785 25.8501ZM46.4901 29.0132C46.6096 28.6787 46.6693 28.3318 46.6693 27.975H45.6693C45.6693 28.2182 45.6289 28.4513 45.5484 28.6768L46.4901 29.0132ZM46.6693 27.975C46.6693 27.53 46.4825 27.1502 46.1324 26.8762L45.5161 27.6638C45.626 27.7498 45.6693 27.84 45.6693 27.975H46.6693ZM46.1324 26.8762C45.7955 26.6126 45.3843 26.5 44.9393 26.5V27.5C45.2142 27.5 45.393 27.5674 45.5161 27.6638L46.1324 26.8762ZM44.9393 26.5C43.4988 26.5 42.652 26.4845 42.3609 26.4572L42.2676 27.4528C42.6165 27.4855 43.5197 27.5 44.9393 27.5V26.5ZM41.8908 26.6891C41.6128 27.1318 41.4035 27.5236 41.2768 27.8577L42.2118 28.2123C42.305 27.9664 42.4757 27.6382 42.7377 27.2209L41.8908 26.6891ZM41.2699 27.8769C41.2192 28.0289 41.1796 28.1529 41.1521 28.2464C41.1385 28.2927 41.1264 28.3365 41.1172 28.3748C41.1122 28.3958 41.0943 28.4682 41.0943 28.545H42.0943C42.0943 28.5668 42.0927 28.5832 42.0918 28.5912C42.0908 28.6001 42.0898 28.6063 42.0893 28.6089C42.0885 28.6137 42.0883 28.6136 42.09 28.6064C42.0934 28.5923 42.1001 28.5673 42.1114 28.5286C42.1339 28.4521 42.1693 28.3411 42.2186 28.1931L41.2699 27.8769ZM41.0943 28.545C41.0943 28.8222 41.1611 29.0882 41.3115 29.3239C41.4607 29.5578 41.6735 29.7328 41.9209 29.8598L42.3777 28.9702C42.255 28.9072 42.1903 28.8422 42.1545 28.7861C42.1199 28.7318 42.0943 28.6578 42.0943 28.545H41.0943ZM41.9209 29.8598C42.3717 30.0913 42.8771 30.2 43.4243 30.2V29.2C43.0114 29.2 42.6668 29.1187 42.3777 28.9702L41.9209 29.8598ZM43.4243 30.2C43.9697 30.2 44.512 30.1108 45.0495 29.9353L44.7391 28.9847C44.2965 29.1292 43.8589 29.2 43.4243 29.2V30.2ZM45.0466 29.9362C45.5886 29.7628 46.0458 29.5256 46.3728 29.1986L45.6657 28.4914C45.4927 28.6644 45.1999 28.8372 44.7419 28.9838L45.0466 29.9362ZM45.7543 21.96C45.7543 21.2729 45.5972 20.6643 45.1948 20.2266C44.7852 19.781 44.2026 19.6 43.5443 19.6V20.6C44.0259 20.6 44.2984 20.729 44.4587 20.9034C44.6263 21.0857 44.7543 21.4071 44.7543 21.96H45.7543ZM43.5443 19.6C42.8905 19.6 42.3099 19.7733 41.8993 20.2056C41.4931 20.6331 41.3343 21.2291 41.3343 21.9H42.3343C42.3343 21.3709 42.4604 21.0669 42.6243 20.8944C42.7836 20.7267 43.0581 20.6 43.5443 20.6V19.6ZM41.3343 21.9C41.3343 22.5882 41.504 23.1951 41.9143 23.6463L42.6542 22.9737C42.4645 22.7649 42.3343 22.4318 42.3343 21.9H41.3343ZM41.9143 23.6463C42.3339 24.1079 42.9201 24.305 43.5893 24.305V23.305C43.1184 23.305 42.8346 23.1721 42.6542 22.9737L41.9143 23.6463ZM43.5893 24.305C44.2353 24.305 44.8077 24.1237 45.2092 23.6787C45.6019 23.2436 45.7543 22.6401 45.7543 21.96H44.7543C44.7543 22.5099 44.6291 22.8289 44.4668 23.0088C44.3133 23.1788 44.0532 23.305 43.5893 23.305V24.305ZM51.5861 15.885H52.0861V15.456L51.6622 15.3908L51.5861 15.885ZM51.4961 16.59L51.0063 16.4887L51.0039 16.5021L51.4961 16.59ZM51.3911 17.085L50.9269 16.8993L50.8911 16.9887V17.085H51.3911ZM51.3311 20.055H50.8311V20.8895L51.567 20.4959L51.3311 20.055ZM52.6061 19.455L52.4223 18.99L52.4185 18.9915L52.6061 19.455ZM55.5011 19.92L55.1287 20.2536L55.1322 20.2575L55.5011 19.92ZM56.0261 25.98L55.5264 25.9628L55.5102 26.4331L55.9787 26.4777L56.0261 25.98ZM57.2861 26.1H57.7861V25.6454L57.3335 25.6023L57.2861 26.1ZM57.0311 27V27.5H57.3317L57.4727 27.2346L57.0311 27ZM53.5811 27L53.083 27.0427L53.1222 27.5H53.5811V27ZM53.5361 26.475L53.3719 26.0028L53.0048 26.1304L53.038 26.5177L53.5361 26.475ZM54.8861 26.115L54.9756 26.6069L55.3958 26.5305L55.386 26.1036L54.8861 26.115ZM54.7211 21.75L54.2255 21.8161L54.2268 21.8255L54.2284 21.835L54.7211 21.75ZM54.5111 20.97L54.056 21.1769L54.5111 20.97ZM51.3161 20.85L51.0868 20.4057L50.8214 20.5427L50.8162 20.8412L51.3161 20.85ZM51.2261 25.98L50.7262 25.9712L50.7181 26.4339L51.1787 26.4777L51.2261 25.98ZM52.4861 26.1H52.9861V25.6454L52.5335 25.6023L52.4861 26.1ZM52.2311 27V27.5H52.5317L52.6727 27.2346L52.2311 27ZM48.7811 27L48.283 27.0427L48.3222 27.5H48.7811V27ZM48.7361 26.475L48.5719 26.0028L48.2048 26.1304L48.238 26.5177L48.7361 26.475ZM50.0861 26.115L50.1756 26.6069L50.5945 26.5308L50.586 26.1051L50.0861 26.115ZM49.9061 17.04L50.406 17.0301L50.3968 16.566L49.9334 16.5407L49.9061 17.04ZM48.5861 16.86L48.0876 16.8217L48.0559 17.2337L48.4546 17.3424L48.5861 16.86ZM48.6461 16.08L48.505 15.6003L48.1741 15.6977L48.1476 16.0417L48.6461 16.08ZM50.9261 16.355C51.2355 16.355 51.4216 16.3656 51.5101 16.3792L51.6622 15.3908C51.4907 15.3644 51.2368 15.355 50.9261 15.355V16.355ZM51.0861 15.885C51.0861 16.0163 51.0634 16.2136 51.0065 16.4887L51.9858 16.6913C52.0489 16.3864 52.0861 16.1137 52.0861 15.885H51.0861ZM51.0039 16.5021C50.9793 16.6399 50.9592 16.7451 50.9433 16.82C50.9353 16.8576 50.9291 16.8843 50.9245 16.902C50.9187 16.925 50.9192 16.9185 50.9269 16.8993L51.8554 17.2707C51.8842 17.1987 51.9058 17.1015 51.9215 17.0275C51.9406 16.9374 51.9629 16.8201 51.9883 16.6779L51.0039 16.5021ZM50.8911 17.085C50.8911 17.2965 50.8814 17.7441 50.8613 18.4355L51.8609 18.4645C51.8809 17.7759 51.8911 17.3135 51.8911 17.085H50.8911ZM50.8613 18.4355C50.8413 19.1271 50.8311 19.6678 50.8311 20.055H51.8311C51.8311 19.6822 51.841 19.1529 51.8609 18.4645L50.8613 18.4355ZM51.567 20.4959C51.9825 20.2736 52.3914 20.0813 52.7937 19.9185L52.4185 18.9915C51.9809 19.1687 51.5398 19.3764 51.0953 19.6141L51.567 20.4959ZM52.79 19.92C52.9999 19.837 53.1625 19.7781 53.2813 19.7407C53.3407 19.722 53.3837 19.7104 53.4128 19.7039C53.4473 19.6961 53.4431 19.7 53.4161 19.7V18.7C53.2747 18.7 53.1116 18.7457 52.981 18.7868C52.8298 18.8344 52.6424 18.903 52.4223 18.99L52.79 19.92ZM53.4161 19.7C54.3042 19.7 54.832 19.9224 55.1287 20.2536L55.8736 19.5864C55.3102 18.9576 54.4481 18.7 53.4161 18.7V19.7ZM55.1322 20.2575C55.4432 20.5974 55.6461 21.1716 55.6461 22.08H56.6461C56.6461 21.0484 56.4191 20.1826 55.87 19.5825L55.1322 20.2575ZM55.6461 22.08C55.6461 22.3488 55.6067 23.636 55.5264 25.9628L56.5258 25.9972C56.6056 23.684 56.6461 22.3712 56.6461 22.08H55.6461ZM55.9787 26.4777L57.2387 26.5977L57.3335 25.6023L56.0735 25.4823L55.9787 26.4777ZM56.7861 26.1C56.7861 26.2777 56.7322 26.497 56.5896 26.7654L57.4727 27.2346C57.6701 26.863 57.7861 26.4823 57.7861 26.1H56.7861ZM57.0311 26.5H53.5811V27.5H57.0311V26.5ZM54.0793 26.9573L54.0343 26.4323L53.038 26.5177L53.083 27.0427L54.0793 26.9573ZM53.7004 26.9472C54.1381 26.795 54.5631 26.6819 54.9756 26.6069L54.7967 25.6231C54.3292 25.7081 53.8541 25.835 53.3719 26.0028L53.7004 26.9472ZM55.386 26.1036C55.356 24.7927 55.3272 23.7711 55.2995 23.0399C55.2727 22.3295 55.246 21.8513 55.2139 21.665L54.2284 21.835C54.2463 21.9387 54.2721 22.333 54.3002 23.0776C54.3276 23.8014 54.3563 24.8173 54.3863 26.1264L55.386 26.1036ZM55.2167 21.6839C55.1718 21.347 55.091 21.0374 54.9663 20.7631L54.056 21.1769C54.1313 21.3426 54.1904 21.553 54.2255 21.8161L55.2167 21.6839ZM54.9663 20.7631C54.8215 20.4446 54.5887 20.1941 54.2663 20.049L53.856 20.961C53.9335 20.9959 54.0007 21.0554 54.056 21.1769L54.9663 20.7631ZM54.2663 20.049C53.9776 19.9191 53.6344 19.87 53.2661 19.87V20.87C53.5578 20.87 53.7446 20.9109 53.856 20.961L54.2663 20.049ZM53.2661 19.87C52.5042 19.87 51.7758 20.0501 51.0868 20.4057L51.5455 21.2943C52.0965 21.0099 52.668 20.87 53.2661 20.87V19.87ZM50.8162 20.8412L50.7262 25.9712L51.7261 25.9888L51.8161 20.8588L50.8162 20.8412ZM51.1787 26.4777L52.4387 26.5977L52.5335 25.6023L51.2735 25.4823L51.1787 26.4777ZM51.9861 26.1C51.9861 26.2777 51.9321 26.497 51.7896 26.7654L52.6727 27.2346C52.8701 26.863 52.9861 26.4823 52.9861 26.1H51.9861ZM52.2311 26.5H48.7811V27.5H52.2311V26.5ZM49.2793 26.9573L49.2343 26.4323L48.238 26.5177L48.283 27.0427L49.2793 26.9573ZM48.9004 26.9472C49.3381 26.795 49.7631 26.6819 50.1756 26.6069L49.9967 25.6231C49.5292 25.7081 49.0541 25.835 48.5719 26.0028L48.9004 26.9472ZM50.586 26.1051L50.406 17.0301L49.4062 17.0499L49.5862 26.1249L50.586 26.1051ZM49.9334 16.5407C49.4001 16.5117 48.9994 16.4545 48.7177 16.3776L48.4546 17.3424C48.8328 17.4455 49.3122 17.5083 49.8789 17.5393L49.9334 16.5407ZM49.0847 16.8983L49.1447 16.1183L48.1476 16.0417L48.0876 16.8217L49.0847 16.8983ZM48.7872 16.5597C49.227 16.4303 49.9292 16.355 50.9261 16.355V15.355C49.9031 15.355 49.0852 15.4297 48.505 15.6003L48.7872 16.5597ZM59.1939 26.07H59.6941L59.6938 26.0594L59.1939 26.07ZM59.0739 20.415L59.5738 20.4044L59.5634 19.915H59.0739V20.415ZM57.9189 20.415L57.4208 20.4577L57.46 20.915H57.9189V20.415ZM57.8739 19.89L57.5872 19.4804L57.3512 19.6456L57.3758 19.9327L57.8739 19.89ZM58.7439 19.5L58.928 19.9649L59.0779 19.9055L59.165 19.7697L58.7439 19.5ZM59.9739 17.58L60.0237 17.0825L59.7184 17.052L59.5529 17.3103L59.9739 17.58ZM60.4389 17.73L60.9389 17.7345L60.9413 17.4771L60.733 17.3256L60.4389 17.73ZM60.4239 19.38L59.924 19.3755L59.9194 19.88H60.4239V19.38ZM62.2689 19.53H62.7689V19.1234L62.3709 19.0405L62.2689 19.53ZM62.0139 20.415V20.915H62.3145L62.4555 20.6496L62.0139 20.415ZM60.3939 20.415V19.915H59.9022L59.894 20.4067L60.3939 20.415ZM60.3339 25.875L59.834 25.8709L59.83 26.3487L60.3072 26.3743L60.3339 25.875ZM62.0139 26.175L62.5137 26.1893L62.5246 25.8075L62.1592 25.6966L62.0139 26.175ZM61.9989 26.7L62.2693 27.1206L62.4912 26.9779L62.4987 26.7143L61.9989 26.7ZM60.9189 27.015L60.8176 26.5254L60.8159 26.5257L60.9189 27.015ZM59.5089 27.195L59.0849 27.46L59.2318 27.695H59.5089V27.195ZM59.3139 26.685L58.8345 26.8271L58.8361 26.832L59.3139 26.685ZM59.6938 26.0594L59.5738 20.4044L58.5741 20.4256L58.6941 26.0806L59.6938 26.0594ZM59.0739 19.915H57.9189V20.915H59.0739V19.915ZM58.4171 20.3723L58.3721 19.8473L57.3758 19.9327L57.4208 20.4577L58.4171 20.3723ZM58.1607 20.2996C58.1578 20.3016 58.171 20.2925 58.2127 20.2712C58.2511 20.2515 58.3032 20.2266 58.371 20.1963C58.5064 20.1356 58.6912 20.0586 58.928 19.9649L58.5599 19.0351C58.3167 19.1314 58.1165 19.2144 57.9619 19.2837C57.8196 19.3475 57.6811 19.4147 57.5872 19.4804L58.1607 20.2996ZM59.165 19.7697L60.395 17.8497L59.5529 17.3103L58.3229 19.2303L59.165 19.7697ZM59.9242 18.0775C60.0752 18.0926 60.1329 18.1257 60.1449 18.1344L60.733 17.3256C60.525 17.1743 60.2727 17.1074 60.0237 17.0825L59.9242 18.0775ZM59.939 17.7255L59.924 19.3755L60.9239 19.3845L60.9389 17.7345L59.939 17.7255ZM60.4239 19.88C61.1557 19.88 61.7332 19.9291 62.167 20.0195L62.3709 19.0405C61.8447 18.9309 61.1922 18.88 60.4239 18.88V19.88ZM61.7689 19.53C61.7689 19.695 61.7166 19.909 61.5724 20.1804L62.4555 20.6496C62.6513 20.281 62.7689 19.905 62.7689 19.53H61.7689ZM62.0139 19.915H60.3939V20.915H62.0139V19.915ZM59.894 20.4067C59.874 21.6089 59.854 23.4306 59.834 25.8709L60.8339 25.8791C60.8539 23.4394 60.8739 21.6211 60.8939 20.4233L59.894 20.4067ZM60.3072 26.3743C60.8253 26.402 61.3455 26.4946 61.8687 26.6534L62.1592 25.6966C61.5623 25.5154 60.9626 25.408 60.3607 25.3757L60.3072 26.3743ZM61.5141 26.1607L61.4991 26.6857L62.4987 26.7143L62.5137 26.1893L61.5141 26.1607ZM61.7286 26.2794C61.7332 26.2764 61.7189 26.2858 61.671 26.3045C61.6264 26.3219 61.5649 26.3426 61.4839 26.3662C61.3218 26.4135 61.1011 26.4667 60.8176 26.5254L61.0202 27.5046C61.3168 27.4433 61.5661 27.384 61.7639 27.3263C61.9471 27.2728 62.1335 27.2079 62.2693 27.1206L61.7286 26.2794ZM60.8159 26.5257C60.2629 26.6422 59.8305 26.695 59.5089 26.695V27.695C59.9274 27.695 60.435 27.6278 61.0219 27.5043L60.8159 26.5257ZM59.9329 26.93C59.9342 26.9321 59.9192 26.9061 59.8897 26.8289C59.8626 26.758 59.83 26.662 59.7918 26.538L58.8361 26.832C58.9133 27.083 58.9948 27.3158 59.0849 27.46L59.9329 26.93ZM59.7933 26.543C59.7161 26.2824 59.6939 26.1346 59.6939 26.07H58.6939C58.6939 26.2854 58.7518 26.5476 58.8345 26.827L59.7933 26.543Z" fill="black"/>
<path d="M67.005 55.28C67.845 55.28 68.41 55.02 68.7 54.5C69 53.97 69.15 53.22 69.15 52.25C69.15 50.71 68.81 49.745 68.13 49.355C67.85 49.195 67.455 49.115 66.945 49.115C66.445 49.115 65.97 49.22 65.52 49.43C65.12 50.2 64.92 51.095 64.92 52.115C64.92 53.095 65.05 53.85 65.31 54.38C65.61 54.98 66.175 55.28 67.005 55.28ZM63.54 52.25C63.54 50.98 63.83 49.99 64.41 49.28C64.99 48.56 65.885 48.2 67.095 48.2C68.305 48.2 69.18 48.53 69.72 49.19C70.26 49.84 70.53 50.805 70.53 52.085C70.53 53.365 70.24 54.37 69.66 55.1C69.09 55.83 68.22 56.195 67.05 56.195C65.88 56.195 65 55.855 64.41 55.175C63.83 54.495 63.54 53.52 63.54 52.25ZM76.2163 49.46C76.1663 49.41 76.0563 49.385 75.8863 49.385C75.7163 49.385 75.4613 49.445 75.1213 49.565C74.7913 49.685 74.4913 49.825 74.2213 49.985C74.1613 52.205 74.1213 53.87 74.1013 54.98L75.3613 55.1C75.3613 55.38 75.2763 55.68 75.1063 56H71.6563L71.6113 55.475C72.0713 55.315 72.5213 55.195 72.9613 55.115C72.9013 52.575 72.8513 50.695 72.8113 49.475C72.2613 49.445 71.8213 49.385 71.4913 49.295L71.5513 48.515C72.0813 48.365 72.8663 48.29 73.9063 48.29C74.0663 48.54 74.1663 48.86 74.2063 49.25C75.3563 48.55 76.0413 48.2 76.2613 48.2C76.4813 48.2 76.7363 48.245 77.0263 48.335C77.3163 48.415 77.5313 48.505 77.6713 48.605C77.6713 49.605 77.5763 50.42 77.3863 51.05C77.2463 51.09 77.0813 51.11 76.8913 51.11C76.7113 51.11 76.5863 51.105 76.5163 51.095L76.2163 49.46ZM83.0296 48.2C83.9896 48.2 84.6846 48.44 85.1146 48.92C85.5446 49.39 85.7596 50.11 85.7596 51.08C85.7596 51.36 85.7196 52.66 85.6396 54.98L86.8996 55.1C86.8996 55.38 86.8146 55.68 86.6446 56H83.1946L83.1496 55.475C83.6096 55.315 84.0596 55.195 84.4996 55.115C84.4396 52.495 84.3846 51.04 84.3346 50.75C84.2946 50.45 84.2246 50.19 84.1246 49.97C84.0246 49.75 83.8746 49.595 83.6746 49.505C83.4746 49.415 83.2096 49.37 82.8796 49.37C82.2196 49.37 81.5796 49.53 80.9596 49.85C80.8996 52.13 80.8596 53.84 80.8396 54.98L82.0996 55.1C82.0996 55.38 82.0146 55.68 81.8446 56H78.3946L78.3496 55.475C78.8096 55.315 79.2596 55.195 79.6996 55.115C79.6396 52.575 79.5896 50.695 79.5496 49.475C78.9996 49.445 78.5596 49.385 78.2296 49.295L78.2896 48.515C78.8296 48.365 79.6146 48.29 80.6446 48.29C80.7646 48.47 80.8546 48.73 80.9146 49.07C81.3446 48.84 81.7746 48.64 82.2046 48.47C82.6446 48.29 82.9196 48.2 83.0296 48.2Z" fill="#082032"/>
<path d="M68.7 54.5L68.2649 54.2537L68.2633 54.2565L68.7 54.5ZM68.13 49.355L68.3788 48.9213L68.3781 48.9209L68.13 49.355ZM65.52 49.43L65.3086 48.9769L65.1546 49.0487L65.0763 49.1995L65.52 49.43ZM65.31 54.38L64.8611 54.6002L64.8628 54.6036L65.31 54.38ZM64.41 49.28L64.7972 49.5963L64.7994 49.5937L64.41 49.28ZM69.72 49.19L69.333 49.5066L69.3354 49.5095L69.72 49.19ZM69.66 55.1L69.2685 54.789L69.2659 54.7923L69.66 55.1ZM64.41 55.175L64.0296 55.4995L64.0323 55.5027L64.41 55.175ZM67.005 55.78C67.9428 55.78 68.7241 55.4834 69.1367 54.7435L68.2633 54.2565C68.0959 54.5566 67.7472 54.78 67.005 54.78V55.78ZM69.1351 54.7463C69.4957 54.1092 69.65 53.2602 69.65 52.25H68.65C68.65 53.1798 68.5043 53.8308 68.2649 54.2537L69.1351 54.7463ZM69.65 52.25C69.65 50.6966 69.318 49.4599 68.3788 48.9213L67.8812 49.7887C68.302 50.0301 68.65 50.7234 68.65 52.25H69.65ZM68.3781 48.9209C67.9908 48.6996 67.4962 48.615 66.945 48.615V49.615C67.4138 49.615 67.7092 49.6904 67.8819 49.7891L68.3781 48.9209ZM66.945 48.615C66.3725 48.615 65.8252 48.7358 65.3086 48.9769L65.7314 49.8831C66.1148 49.7042 66.5175 49.615 66.945 49.615V48.615ZM65.0763 49.1995C64.6333 50.0522 64.42 51.0288 64.42 52.115H65.42C65.42 51.1612 65.6067 50.3478 65.9637 49.6605L65.0763 49.1995ZM64.42 52.115C64.42 53.1271 64.5523 53.9707 64.8611 54.6002L65.7589 54.1598C65.5477 53.7293 65.42 53.0629 65.42 52.115H64.42ZM64.8628 54.6036C65.2692 55.4164 66.0396 55.78 67.005 55.78V54.78C66.3104 54.78 65.9508 54.5436 65.7572 54.1564L64.8628 54.6036ZM64.04 52.25C64.04 51.0513 64.3138 50.1881 64.7972 49.5963L64.0228 48.9637C63.3462 49.7919 63.04 50.9087 63.04 52.25H64.04ZM64.7994 49.5937C65.2568 49.0258 65.9859 48.7 67.095 48.7V47.7C65.7841 47.7 64.7232 48.0942 64.0206 48.9663L64.7994 49.5937ZM67.095 48.7C68.2206 48.7 68.9229 49.0054 69.333 49.5066L70.107 48.8734C69.4371 48.0546 68.3894 47.7 67.095 47.7V48.7ZM69.3354 49.5095C69.7708 50.0336 70.03 50.8641 70.03 52.085H71.03C71.03 50.7459 70.7492 49.6463 70.1046 48.8705L69.3354 49.5095ZM70.03 52.085C70.03 53.2937 69.7561 54.1753 69.2685 54.789L70.0515 55.411C70.7239 54.5647 71.03 53.4363 71.03 52.085H70.03ZM69.2659 54.7923C68.815 55.3697 68.1105 55.695 67.05 55.695V56.695C68.3295 56.695 69.365 56.2903 70.0541 55.4077L69.2659 54.7923ZM67.05 55.695C65.9786 55.695 65.2561 55.3872 64.7877 54.8473L64.0323 55.5027C64.744 56.3228 65.7814 56.695 67.05 56.695V55.695ZM64.7904 54.8505C64.3145 54.2926 64.04 53.4504 64.04 52.25H63.04C63.04 53.5896 63.3455 54.6974 64.0296 55.4995L64.7904 54.8505ZM76.2163 49.46L76.7081 49.3698L76.68 49.2166L76.5698 49.1064L76.2163 49.46ZM75.1213 49.565L74.9549 49.0935L74.9504 49.0951L75.1213 49.565ZM74.2213 49.985L73.9664 49.5549L73.7289 49.6956L73.7215 49.9715L74.2213 49.985ZM74.1013 54.98L73.6014 54.971L73.593 55.4339L74.0539 55.4777L74.1013 54.98ZM75.3613 55.1H75.8613V54.6454L75.4087 54.6023L75.3613 55.1ZM75.1063 56V56.5H75.4068L75.5478 56.2346L75.1063 56ZM71.6563 56L71.1581 56.0427L71.1973 56.5H71.6563V56ZM71.6113 55.475L71.447 55.0028L71.0799 55.1304L71.1131 55.5177L71.6113 55.475ZM72.9613 55.115L73.0507 55.6069L73.4712 55.5305L73.4611 55.1032L72.9613 55.115ZM72.8113 49.475L73.311 49.4586L73.296 49.0007L72.8385 48.9757L72.8113 49.475ZM71.4913 49.295L70.9928 49.2567L70.9611 49.6687L71.3597 49.7774L71.4913 49.295ZM71.5513 48.515L71.4151 48.0339L71.0795 48.1289L71.0528 48.4767L71.5513 48.515ZM73.9063 48.29L74.3274 48.0205L74.1799 47.79H73.9063V48.29ZM74.2063 49.25L73.7089 49.301L73.7897 50.0889L74.4663 49.6771L74.2063 49.25ZM77.0263 48.335L76.8781 48.8125L76.8857 48.8149L76.8933 48.817L77.0263 48.335ZM77.6713 48.605H78.1713V48.3477L77.9619 48.1981L77.6713 48.605ZM77.3863 51.05L77.5237 51.5308L77.7862 51.4558L77.865 51.1944L77.3863 51.05ZM76.5163 51.095L76.0245 51.1852L76.0894 51.5391L76.4456 51.59L76.5163 51.095ZM76.5698 49.1064C76.4495 48.9861 76.3042 48.9383 76.2071 48.9162C76.1024 48.8924 75.9918 48.885 75.8863 48.885V49.885C75.9169 49.885 75.9405 49.8861 75.9581 49.8877C75.9759 49.8893 75.9844 49.8911 75.9855 49.8913C75.9871 49.8917 75.9753 49.8893 75.9553 49.8799C75.9354 49.8706 75.9 49.8508 75.8627 49.8136L76.5698 49.1064ZM75.8863 48.885C75.6255 48.885 75.3021 48.9709 74.9549 49.0935L75.2877 50.0365C75.6204 49.9191 75.8071 49.885 75.8863 49.885V48.885ZM74.9504 49.0951C74.5946 49.2245 74.266 49.3773 73.9664 49.5549L74.4762 50.4151C74.7165 50.2727 74.988 50.1455 75.2922 50.0349L74.9504 49.0951ZM73.7215 49.9715C73.6615 52.1918 73.6214 53.8587 73.6014 54.971L74.6012 54.989C74.6212 53.8813 74.6611 52.2182 74.7211 49.9985L73.7215 49.9715ZM74.0539 55.4777L75.3139 55.5977L75.4087 54.6023L74.1487 54.4823L74.0539 55.4777ZM74.8613 55.1C74.8613 55.2777 74.8073 55.497 74.6647 55.7654L75.5478 56.2346C75.7453 55.863 75.8613 55.4823 75.8613 55.1H74.8613ZM75.1063 55.5H71.6563V56.5H75.1063V55.5ZM72.1545 55.9573L72.1095 55.4323L71.1131 55.5177L71.1581 56.0427L72.1545 55.9573ZM71.7755 55.9472C72.2133 55.795 72.6383 55.6819 73.0507 55.6069L72.8718 54.6231C72.4043 54.7081 71.9293 54.835 71.447 55.0028L71.7755 55.9472ZM73.4611 55.1032C73.4011 52.5629 73.3511 50.681 73.311 49.4586L72.3116 49.4914C72.3515 50.709 72.4014 52.5871 72.4614 55.1268L73.4611 55.1032ZM72.8385 48.9757C72.3052 48.9467 71.9046 48.8895 71.6228 48.8126L71.3597 49.7774C71.738 49.8805 72.2174 49.9433 72.7841 49.9743L72.8385 48.9757ZM71.9898 49.3333L72.0498 48.5533L71.0528 48.4767L70.9928 49.2567L71.9898 49.3333ZM71.6875 48.9961C72.1498 48.8653 72.8792 48.79 73.9063 48.79V47.79C72.8534 47.79 72.0128 47.8647 71.4151 48.0339L71.6875 48.9961ZM73.4852 48.5595C73.5917 48.726 73.6744 48.9649 73.7089 49.301L74.7037 49.199C74.6582 48.7551 74.5409 48.354 74.3274 48.0205L73.4852 48.5595ZM74.4663 49.6771C75.0372 49.3295 75.4838 49.0744 75.81 48.9077C75.9737 48.8241 76.0989 48.767 76.1895 48.732C76.2976 48.6901 76.3065 48.7 76.2613 48.7V47.7C76.106 47.7 75.9468 47.7536 75.8287 47.7993C75.6931 47.8517 75.5339 47.9259 75.355 48.0173C74.9963 48.2006 74.5253 48.4705 73.9463 48.8229L74.4663 49.6771ZM76.2613 48.7C76.416 48.7 76.6192 48.7322 76.8781 48.8125L77.1745 47.8575C76.8533 47.7578 76.5466 47.7 76.2613 47.7V48.7ZM76.8933 48.817C77.1625 48.8913 77.3114 48.9624 77.3807 49.0119L77.9619 48.1981C77.7512 48.0476 77.47 47.9387 77.1593 47.853L76.8933 48.817ZM77.1713 48.605C77.1713 49.5787 77.0782 50.34 76.9076 50.9056L77.865 51.1944C78.0744 50.5 78.1713 49.6313 78.1713 48.605H77.1713ZM77.2489 50.5692C77.1648 50.5933 77.0481 50.61 76.8913 50.61V51.61C77.1145 51.61 77.3278 51.5867 77.5237 51.5308L77.2489 50.5692ZM76.8913 50.61C76.7097 50.61 76.6176 50.6044 76.587 50.6L76.4456 51.59C76.555 51.6056 76.7128 51.61 76.8913 51.61V50.61ZM77.0081 51.0048L76.7081 49.3698L75.7245 49.5502L76.0245 51.1852L77.0081 51.0048ZM85.1146 48.92L84.7421 49.2536L84.7457 49.2575L85.1146 48.92ZM85.6396 54.98L85.1399 54.9628L85.1236 55.4331L85.5922 55.4777L85.6396 54.98ZM86.8996 55.1H87.3996V54.6454L86.947 54.6023L86.8996 55.1ZM86.6446 56V56.5H86.9451L87.0861 56.2346L86.6446 56ZM83.1946 56L82.6964 56.0427L82.7356 56.5H83.1946V56ZM83.1496 55.475L82.9853 55.0028L82.6182 55.1304L82.6514 55.5177L83.1496 55.475ZM84.4996 55.115L84.589 55.6069L85.0092 55.5305L84.9994 55.1036L84.4996 55.115ZM84.3346 50.75L83.839 50.8161L83.8402 50.8255L83.8418 50.835L84.3346 50.75ZM84.1246 49.97L84.5798 49.7631V49.7631L84.1246 49.97ZM83.6746 49.505L83.8798 49.049L83.6746 49.505ZM80.9596 49.85L80.7302 49.4057L80.4675 49.5413L80.4597 49.8368L80.9596 49.85ZM80.8396 54.98L80.3396 54.9712L80.3315 55.4339L80.7922 55.4777L80.8396 54.98ZM82.0996 55.1H82.5996V54.6454L82.147 54.6023L82.0996 55.1ZM81.8446 56V56.5H82.1451L82.2861 56.2346L81.8446 56ZM78.3946 56L77.8964 56.0427L77.9356 56.5H78.3946V56ZM78.3496 55.475L78.1853 55.0028L77.8182 55.1304L77.8514 55.5177L78.3496 55.475ZM79.6996 55.115L79.789 55.6069L80.2095 55.5305L80.1994 55.1032L79.6996 55.115ZM79.5496 49.475L80.0493 49.4586L80.0343 49.0007L79.5768 48.9757L79.5496 49.475ZM78.2296 49.295L77.731 49.2567L77.6994 49.6687L78.098 49.7774L78.2296 49.295ZM78.2896 48.515L78.1557 48.0332L77.8179 48.1271L77.791 48.4767L78.2896 48.515ZM80.6446 48.29L81.0606 48.0126L80.9122 47.79H80.6446V48.29ZM80.9146 49.07L80.4222 49.1569L80.5421 49.8363L81.1504 49.5109L80.9146 49.07ZM82.2046 48.47L82.3884 48.935L82.3939 48.9328L82.2046 48.47ZM83.0296 48.7C83.9176 48.7 84.4455 48.9224 84.7422 49.2536L85.487 48.5864C84.9237 47.9576 84.0615 47.7 83.0296 47.7V48.7ZM84.7457 49.2575C85.0566 49.5974 85.2596 50.1716 85.2596 51.08H86.2596C86.2596 50.0484 86.0325 49.1826 85.4835 48.5825L84.7457 49.2575ZM85.2596 51.08C85.2596 51.3488 85.2201 52.636 85.1399 54.9628L86.1393 54.9972C86.219 52.684 86.2596 51.3712 86.2596 51.08H85.2596ZM85.5922 55.4777L86.8522 55.5977L86.947 54.6023L85.687 54.4823L85.5922 55.4777ZM86.3996 55.1C86.3996 55.2777 86.3456 55.497 86.203 55.7654L87.0861 56.2346C87.2836 55.863 87.3996 55.4823 87.3996 55.1H86.3996ZM86.6446 55.5H83.1946V56.5H86.6446V55.5ZM83.6927 55.9573L83.6477 55.4323L82.6514 55.5177L82.6964 56.0427L83.6927 55.9573ZM83.3138 55.9472C83.7516 55.795 84.1766 55.6819 84.589 55.6069L84.4101 54.6231C83.9426 54.7081 83.4676 54.835 82.9853 55.0028L83.3138 55.9472ZM84.9994 55.1036C84.9694 53.7927 84.9406 52.7711 84.913 52.0399C84.8861 51.3295 84.8594 50.8513 84.8273 50.665L83.8418 50.835C83.8597 50.9387 83.8855 51.333 83.9137 52.0776C83.941 52.8014 83.9697 53.8173 83.9997 55.1264L84.9994 55.1036ZM84.8302 50.6839C84.7853 50.347 84.7044 50.0374 84.5798 49.7631L83.6694 50.1769C83.7447 50.3426 83.8039 50.553 83.839 50.8161L84.8302 50.6839ZM84.5798 49.7631C84.435 49.4446 84.2022 49.1941 83.8798 49.049L83.4694 49.961C83.547 49.9959 83.6142 50.0554 83.6694 50.1769L84.5798 49.7631ZM83.8798 49.049C83.5911 48.9191 83.2479 48.87 82.8796 48.87V49.87C83.1713 49.87 83.3581 49.9109 83.4694 49.961L83.8798 49.049ZM82.8796 48.87C82.1352 48.87 81.417 49.0512 80.7302 49.4057L81.1889 50.2943C81.7422 50.0088 82.3039 49.87 82.8796 49.87V48.87ZM80.4597 49.8368C80.3997 52.1172 80.3597 53.829 80.3396 54.9712L81.3395 54.9888C81.3595 53.851 81.3994 52.1428 81.4594 49.8632L80.4597 49.8368ZM80.7922 55.4777L82.0522 55.5977L82.147 54.6023L80.887 54.4823L80.7922 55.4777ZM81.5996 55.1C81.5996 55.2777 81.5456 55.497 81.403 55.7654L82.2861 56.2346C82.4836 55.863 82.5996 55.4823 82.5996 55.1H81.5996ZM81.8446 55.5H78.3946V56.5H81.8446V55.5ZM78.8927 55.9573L78.8477 55.4323L77.8514 55.5177L77.8964 56.0427L78.8927 55.9573ZM78.5138 55.9472C78.9516 55.795 79.3766 55.6819 79.789 55.6069L79.6101 54.6231C79.1426 54.7081 78.6676 54.835 78.1853 55.0028L78.5138 55.9472ZM80.1994 55.1032C80.1394 52.5629 80.0894 50.681 80.0493 49.4586L79.0498 49.4914C79.0898 50.709 79.1397 52.5871 79.1997 55.1268L80.1994 55.1032ZM79.5768 48.9757C79.0435 48.9467 78.6429 48.8895 78.3611 48.8126L78.098 49.7774C78.4763 49.8805 78.9556 49.9433 79.5223 49.9743L79.5768 48.9757ZM78.7281 49.3333L78.7881 48.5533L77.791 48.4767L77.731 49.2567L78.7281 49.3333ZM78.4234 48.9968C78.8976 48.865 79.6287 48.79 80.6446 48.79V47.79C79.6004 47.79 78.7615 47.865 78.1557 48.0332L78.4234 48.9968ZM80.2285 48.5674C80.2941 48.6657 80.3678 48.849 80.4222 49.1569L81.407 48.9831C81.3413 48.611 81.235 48.2743 81.0606 48.0126L80.2285 48.5674ZM81.1504 49.5109C81.5644 49.2894 81.9771 49.0976 82.3884 48.935L82.0207 48.005C81.572 48.1824 81.1247 48.3906 80.6787 48.6291L81.1504 49.5109ZM82.3939 48.9328C82.6088 48.8448 82.7751 48.7824 82.8963 48.7427C82.957 48.7228 83.0007 48.7106 83.0299 48.7037C83.0653 48.6955 83.0593 48.7 83.0296 48.7V47.7C82.8843 47.7 82.7169 47.7492 82.5853 47.7923C82.4315 47.8426 82.2403 47.9152 82.0153 48.0072L82.3939 48.9328Z" fill="black"/>
<g filter="url(#filter1_d_0_1)">
<path d="M49.136 43.952C49.264 44.208 49.4347 45.1893 49.648 46.896C49.904 48.6027 50.032 50.0533 50.032 51.248C50.032 52.4 49.968 53.3173 49.84 54H19.44L19.248 51.76C21.2533 51.0347 23.0667 50.544 24.688 50.288C24.432 33.4773 24.2187 21.0827 24.048 13.104C22.9387 12.9333 21.0613 12.4213 18.416 11.568L18.736 9.2H34.16C34.8853 10.3947 35.248 11.6533 35.248 12.976C32.944 13.0613 31.28 13.1253 30.256 13.168C30.1707 21.36 30.0853 28.8267 30 35.568C29.9573 42.2667 29.9147 46.9813 29.872 49.712H43.888L45.424 43.632C47.5573 43.632 48.7947 43.7387 49.136 43.952Z" fill="#082032"/>
<path d="M49.136 43.952L50.0304 43.5048L49.9046 43.2531L49.666 43.104L49.136 43.952ZM49.648 46.896L48.6557 47.02L48.6572 47.0322L48.6591 47.0443L49.648 46.896ZM49.84 54V55H50.6699L50.8229 54.1843L49.84 54ZM19.44 54L18.4437 54.0854L18.522 55H19.44V54ZM19.248 51.76L18.9079 50.8196L18.1861 51.0807L18.2517 51.8454L19.248 51.76ZM24.688 50.288L24.844 51.2758L25.7011 51.1404L25.6879 50.2728L24.688 50.288ZM24.048 13.104L25.0478 13.0826L25.0298 12.2433L24.2001 12.1156L24.048 13.104ZM18.416 11.568L17.425 11.4341L17.313 12.2629L18.109 12.5197L18.416 11.568ZM18.736 9.2V8.2H17.862L17.745 9.06608L18.736 9.2ZM34.16 9.2L35.0148 8.68102L34.7227 8.2H34.16V9.2ZM35.248 12.976L35.285 13.9753L36.248 13.9396V12.976H35.248ZM30.256 13.168L30.2144 12.1689L29.2659 12.2084L29.2561 13.1576L30.256 13.168ZM30 35.568L29.0001 35.5553L29 35.5616L30 35.568ZM29.872 49.712L28.8721 49.6964L28.8563 50.712H29.872V49.712ZM43.888 49.712V50.712H44.6668L44.8575 49.9569L43.888 49.712ZM45.424 43.632V42.632H44.6452L44.4545 43.3871L45.424 43.632ZM48.2416 44.3992C48.2187 44.3535 48.2322 44.3665 48.2679 44.5146C48.2982 44.6401 48.334 44.8168 48.3748 45.0513C48.4561 45.519 48.5498 46.173 48.6557 47.02L50.6403 46.772C50.5328 45.9124 50.4345 45.2223 50.3452 44.7087C50.3007 44.4525 50.2565 44.2292 50.2121 44.0454C50.1732 43.8842 50.1173 43.6785 50.0304 43.5048L48.2416 44.3992ZM48.6591 47.0443C48.9106 48.7215 49.032 50.1195 49.032 51.248H51.032C51.032 49.9872 50.8974 48.4839 50.6369 46.7477L48.6591 47.0443ZM49.032 51.248C49.032 52.3728 48.9688 53.2204 48.8571 53.8157L50.8229 54.1843C50.9672 53.4143 51.032 52.4272 51.032 51.248H49.032ZM49.84 53H19.44V55H49.84V53ZM20.4363 53.9146L20.2443 51.6746L18.2517 51.8454L18.4437 54.0854L20.4363 53.9146ZM19.5881 52.7004C21.5504 51.9906 23.3008 51.5194 24.844 51.2758L24.532 49.3002C22.8326 49.5686 20.9563 50.0787 18.9079 50.8196L19.5881 52.7004ZM25.6879 50.2728C25.4319 33.4618 25.2185 21.0645 25.0478 13.0826L23.0482 13.1254C23.2188 21.1008 23.4321 33.4929 23.6881 50.3032L25.6879 50.2728ZM24.2001 12.1156C23.1786 11.9585 21.3701 11.4702 18.723 10.6163L18.109 12.5197C20.7526 13.3725 22.6988 13.9082 23.8959 14.0924L24.2001 12.1156ZM19.407 11.7019L19.727 9.33391L17.745 9.06608L17.425 11.4341L19.407 11.7019ZM18.736 10.2H34.16V8.2H18.736V10.2ZM33.3052 9.71898C33.9412 10.7664 34.248 11.8469 34.248 12.976H36.248C36.248 11.4598 35.8295 10.0229 35.0148 8.68102L33.3052 9.71898ZM35.211 11.9767C32.9069 12.062 31.2409 12.1261 30.2144 12.1689L30.2976 14.1671C31.3191 14.1246 32.9811 14.0606 35.285 13.9753L35.211 11.9767ZM29.2561 13.1576C29.1707 21.349 29.0854 28.8149 29.0001 35.5553L30.9999 35.5807C31.0853 28.8384 31.1706 21.371 31.2559 13.1784L29.2561 13.1576ZM29 35.5616C28.9574 42.2604 28.9147 46.9708 28.8721 49.6964L30.8719 49.7276C30.9146 46.9918 30.9573 42.273 31 35.5744L29 35.5616ZM29.872 50.712H43.888V48.712H29.872V50.712ZM44.8575 49.9569L46.3935 43.8769L44.4545 43.3871L42.9185 49.4671L44.8575 49.9569ZM45.424 44.632C46.4792 44.632 47.2891 44.6586 47.8661 44.7083C48.1555 44.7332 48.3675 44.7625 48.5133 44.7921C48.6867 44.8272 48.6801 44.8463 48.606 44.8L49.666 43.104C49.4212 42.951 49.132 42.8768 48.9107 42.8319C48.6618 42.7815 48.3672 42.7441 48.0379 42.7157C47.3775 42.6588 46.5022 42.632 45.424 42.632V44.632Z" fill="black"/>
</g>
<g filter="url(#filter2_d_0_1)">
<path d="M54.712 51.64C57.1867 51.9387 59.3627 53.0907 61.24 55.096C63.16 57.1013 64.12 59.9173 64.12 63.544C64.12 67.128 62.6907 69.944 59.832 71.992C57.016 73.9973 52.8773 75 47.416 75H29.88L29.688 72.76C31.48 72.0347 33.3147 71.5227 35.192 71.224C34.936 54.7547 34.7227 42.4027 34.552 34.168C33.1013 33.912 31.224 33.4 28.92 32.632C29.048 31.0533 29.1547 30.2427 29.24 30.2H45.304C51.0213 30.2 54.904 30.6907 56.952 31.672C57.9333 32.1413 58.9147 32.76 59.896 33.528C61.8587 35.064 62.84 37.6027 62.84 41.144C62.84 42.936 62.52 44.5573 61.88 46.008C61.2827 47.416 60.4933 48.504 59.512 49.272C57.72 50.68 56.12 51.4693 54.712 51.64ZM47.736 54.392H40.632C40.5467 58.0613 40.4613 63.48 40.376 70.648H47.16C54.2427 70.648 57.784 68.0027 57.784 62.712C57.784 59.64 56.952 57.4853 55.288 56.248C53.6667 55.0107 51.1493 54.392 47.736 54.392ZM44.664 34.68L40.824 34.744C40.7387 38.6693 40.696 43.768 40.696 50.04H46.968C50.7227 50.04 53.2187 49.336 54.456 47.928C55.736 46.4773 56.376 44.1947 56.376 41.08C56.376 36.8133 52.472 34.68 44.664 34.68Z" fill="#082032"/>
<path d="M54.712 51.64L54.5917 50.6473L54.5922 52.6328L54.712 51.64ZM61.24 55.096L60.5099 55.7795L60.5177 55.7876L61.24 55.096ZM59.832 71.992L60.4121 72.8066L60.4144 72.8049L59.832 71.992ZM29.88 75L28.8837 75.0854L28.962 76H29.88V75ZM29.688 72.76L29.3128 71.8331L28.6286 72.11L28.6917 72.8454L29.688 72.76ZM35.192 71.224L35.3491 72.2116L36.2054 72.0754L36.1919 71.2085L35.192 71.224ZM34.552 34.168L35.5518 34.1473L35.5348 33.326L34.7258 33.1832L34.552 34.168ZM28.92 32.632L27.9233 32.5512L27.8599 33.3327L28.6038 33.5807L28.92 32.632ZM29.24 30.2V29.2H29.0039L28.7928 29.3056L29.24 30.2ZM56.952 31.672L56.5199 32.5738L56.5205 32.5741L56.952 31.672ZM59.896 33.528L59.2797 34.3155L59.2797 34.3155L59.896 33.528ZM61.88 46.008L60.9651 45.6044L60.9622 45.6109L60.9594 45.6174L61.88 46.008ZM59.512 49.272L58.8957 48.4845L58.8942 48.4857L59.512 49.272ZM40.632 54.392V53.392H39.655L39.6323 54.3687L40.632 54.392ZM40.376 70.648L39.3761 70.6361L39.364 71.648H40.376V70.648ZM55.288 56.248L54.6813 57.043L54.6913 57.0505L55.288 56.248ZM44.664 34.68V33.68H44.6557L44.6473 33.6801L44.664 34.68ZM40.824 34.744L40.8073 33.7441L39.8452 33.7602L39.8242 34.7223L40.824 34.744ZM40.696 50.04H39.696V51.04H40.696V50.04ZM54.456 47.928L53.7062 47.2664L53.7048 47.2679L54.456 47.928ZM54.5922 52.6328C56.8091 52.9004 58.7758 53.927 60.51 55.7794L61.97 54.4126C59.9495 52.2543 57.5642 50.977 54.8318 50.6472L54.5922 52.6328ZM60.5177 55.7876C62.2101 57.5552 63.12 60.0934 63.12 63.544H65.12C65.12 59.7412 64.1099 56.6475 61.9623 54.4044L60.5177 55.7876ZM63.12 63.544C63.12 66.8129 61.8402 69.3231 59.2496 71.1791L60.4144 72.8049C63.5411 70.5649 65.12 67.4431 65.12 63.544H63.12ZM59.2519 71.1774C56.6778 73.0105 52.781 74 47.416 74V76C52.9737 76 57.3542 74.9842 60.4121 72.8066L59.2519 71.1774ZM47.416 74H29.88V76H47.416V74ZM30.8763 74.9146L30.6843 72.6746L28.6917 72.8454L28.8837 75.0854L30.8763 74.9146ZM30.0632 73.6869C31.7862 72.9895 33.5478 72.4982 35.3491 72.2116L35.0349 70.2364C33.0815 70.5472 31.1738 71.0798 29.3128 71.8331L30.0632 73.6869ZM36.1919 71.2085C35.9359 54.7387 35.7225 42.3846 35.5518 34.1473L33.5522 34.1887C33.7228 42.4207 33.9361 54.7706 34.1921 71.2395L36.1919 71.2085ZM34.7258 33.1832C33.3443 32.9394 31.5194 32.4444 29.2362 31.6833L28.6038 33.5807C30.9286 34.3556 32.8584 34.8846 34.3782 35.1528L34.7258 33.1832ZM29.9167 32.7128C29.9804 31.9278 30.0375 31.3504 30.0875 30.9705C30.1129 30.7768 30.1336 30.6576 30.1476 30.5955C30.1554 30.5607 30.1545 30.5744 30.1398 30.6124C30.1329 30.6303 30.1111 30.6851 30.0681 30.7528C30.0379 30.8004 29.9232 30.9764 29.6872 31.0944L28.7928 29.3056C28.5461 29.4289 28.4206 29.6162 28.3794 29.6812C28.3254 29.7663 28.2925 29.8443 28.2742 29.8916C28.2369 29.9883 28.2126 30.0847 28.1964 30.1565C28.1624 30.3077 28.1324 30.4979 28.1045 30.7095C28.0479 31.1402 27.9876 31.7575 27.9233 32.5512L29.9167 32.7128ZM29.24 31.2H45.304V29.2H29.24V31.2ZM45.304 31.2C48.138 31.2 50.493 31.3218 52.3786 31.5601C54.2788 31.8002 55.638 32.1513 56.5199 32.5738L57.3841 30.7702C56.218 30.2114 54.6119 29.8264 52.6294 29.5759C50.6323 29.3235 48.1874 29.2 45.304 29.2V31.2ZM56.5205 32.5741C57.4276 33.0079 58.3475 33.586 59.2797 34.3155L60.5123 32.7405C59.4818 31.934 58.4391 31.2747 57.3835 30.7699L56.5205 32.5741ZM59.2797 34.3155C60.9101 35.5915 61.84 37.7741 61.84 41.144H63.84C63.84 37.4312 62.8072 34.5365 60.5123 32.7405L59.2797 34.3155ZM61.84 41.144C61.84 42.8151 61.5421 44.2964 60.9651 45.6044L62.7949 46.4116C63.4979 44.8182 63.84 43.0569 63.84 41.144H61.84ZM60.9594 45.6174C60.4133 46.9046 59.7165 47.8421 58.8957 48.4845L60.1283 50.0595C61.2702 49.1659 62.152 47.9274 62.8006 46.3986L60.9594 45.6174ZM58.8942 48.4857C57.1671 49.8427 55.7392 50.5082 54.5917 50.6473L54.8323 52.6327C56.5008 52.4305 58.2729 51.5173 60.1298 50.0583L58.8942 48.4857ZM47.736 53.392H40.632V55.392H47.736V53.392ZM39.6323 54.3687C39.5468 58.0439 39.4614 63.4671 39.3761 70.6361L41.3759 70.6599C41.4613 63.4929 41.5465 58.0788 41.6317 54.4152L39.6323 54.3687ZM40.376 71.648H47.16V69.648H40.376V71.648ZM47.16 71.648C50.7969 71.648 53.7066 70.9739 55.7265 69.4652C57.8011 67.9155 58.784 65.6028 58.784 62.712H56.784C56.784 65.1118 55.9963 66.7672 54.5295 67.8628C53.008 68.9994 50.6058 69.648 47.16 69.648V71.648ZM58.784 62.712C58.784 59.4826 57.9074 56.9496 55.8847 55.4455L54.6913 57.0505C55.9966 58.0211 56.784 59.7974 56.784 62.712H58.784ZM55.8947 55.453C54.0161 54.0194 51.2341 53.392 47.736 53.392V55.392C51.0645 55.392 53.3173 56.002 54.6813 57.0429L55.8947 55.453ZM44.6473 33.6801L40.8073 33.7441L40.8407 35.7439L44.6807 35.6799L44.6473 33.6801ZM39.8242 34.7223C39.7387 38.6578 39.696 43.7645 39.696 50.04H41.696C41.696 43.7715 41.7387 38.6809 41.8238 34.7657L39.8242 34.7223ZM40.696 51.04H46.968V49.04H40.696V51.04ZM46.968 51.04C50.7553 51.04 53.6596 50.3492 55.2072 48.5881L53.7048 47.2679C52.7778 48.3228 50.6901 49.04 46.968 49.04V51.04ZM55.2058 48.5896C56.7204 46.8731 57.376 44.2982 57.376 41.08H55.376C55.376 44.0911 54.7516 46.0815 53.7062 47.2664L55.2058 48.5896ZM57.376 41.08C57.376 39.8556 57.0941 38.7369 56.4977 37.7592C55.9027 36.7838 55.0285 36.0041 53.9275 35.4025C51.7557 34.2157 48.6263 33.68 44.664 33.68V35.68C48.5097 35.68 51.2363 36.211 52.9685 37.1575C53.8195 37.6226 54.4093 38.1762 54.7903 38.8008C55.1699 39.4231 55.376 40.1711 55.376 41.08H57.376Z" fill="black"/>
</g>
<path d="M34.3275 51.8484C34.3499 51.6692 35.0341 51.7623 35.1887 51.7623" stroke="#082032" stroke-width="3" stroke-linecap="round"/>
<path d="M33.983 51.5039C33.8491 51.5039 34.5124 51.4529 34.3083 51.657C34.2341 51.7312 33.7629 51.4409 34.1552 51.4178C34.4448 51.4008 33.6934 51.2626 33.983 51.2456C34.2025 51.2327 34.4347 51.3317 34.6719 51.3317" stroke="#082032" stroke-width="3" stroke-linecap="round"/>
<path d="M34.3275 52.1929C34.2403 52.1929 34.1552 52.1347 34.1552 52.3651" stroke="#082032" stroke-width="3" stroke-linecap="round"/>
<path d="M34.4997 52.3651C34.7423 52.3955 34.1552 52.7514 34.1552 52.279" stroke="#082032" stroke-width="3" stroke-linecap="round"/>
<path d="M46.126 47.8868C46.1162 47.9655 45.7415 48.5097 45.9538 48.4036" stroke="#082032" stroke-width="3" stroke-linecap="round"/>
<path d="M45.6093 51.8484C45.8914 51.7638 46.2856 51.2207 46.3844 50.9489C46.4646 50.7283 46.8583 50.4282 46.8102 50.26C46.7423 50.0224 46.0991 50.116 45.9538 50.193C45.8365 50.2551 45.1783 50.4705 45.6954 50.4705" stroke="#082032" stroke-width="3" stroke-linecap="round"/>
<path d="M46.0399 50.2982C45.8832 50.2982 45.5232 50.3804 45.5232 50.1691C45.5232 49.9786 45.2854 49.7378 45.6093 49.9537" stroke="#082032" stroke-width="3" stroke-linecap="round"/>
<path d="M47.6762 49.0925C47.6762 49.3939 47.8547 49.617 48.0207 49.8246C48.2128 50.0647 48.284 50.0399 48.6235 50.0399" stroke="#082032" stroke-width="3" stroke-linecap="round"/>
<path d="M48.0207 49.0064C48.6079 49.0064 48.4513 49.6692 48.4513 50.0399" stroke="#082032" stroke-width="3" stroke-linecap="round"/>
<defs>
<filter id="filter0_f_0_1" x="0.5" y="8.5" width="100" height="67" filterUnits="userSpaceOnUse" color-interpolation-filters="sRGB">
<feFlood flood-opacity="0" result="BackgroundImageFix"/>
<feBlend mode="normal" in="SourceGraphic" in2="BackgroundImageFix" result="shape"/>
<feGaussianBlur stdDeviation="2" result="effect1_foregroundBlur_0_1"/>
</filter>
<filter id="filter1_d_0_1" x="14.416" y="9.2" width="39.616" height="52.8" filterUnits="userSpaceOnUse" color-interpolation-filters="sRGB">
<feFlood flood-opacity="0" result="BackgroundImageFix"/>
<feColorMatrix in="SourceAlpha" type="matrix" values="0 0 0 0 0 0 0 0 0 0 0 0 0 0 0 0 0 0 127 0" result="hardAlpha"/>
<feOffset dy="4"/>
<feGaussianBlur stdDeviation="2"/>
<feComposite in2="hardAlpha" operator="out"/>
<feColorMatrix type="matrix" values="0 0 0 0 0 0 0 0 0 0 0 0 0 0 0 0 0 0 0.25 0"/>
<feBlend mode="normal" in2="BackgroundImageFix" result="effect1_dropShadow_0_1"/>
<feBlend mode="normal" in="SourceGraphic" in2="effect1_dropShadow_0_1" result="shape"/>
</filter>
<filter id="filter2_d_0_1" x="24.92" y="30.2" width="43.2" height="52.8" filterUnits="userSpaceOnUse" color-interpolation-filters="sRGB">
<feFlood flood-opacity="0" result="BackgroundImageFix"/>
<feColorMatrix in="SourceAlpha" type="matrix" values="0 0 0 0 0 0 0 0 0 0 0 0 0 0 0 0 0 0 127 0" result="hardAlpha"/>
<feOffset dy="4"/>
<feGaussianBlur stdDeviation="2"/>
<feComposite in2="hardAlpha" operator="out"/>
<feColorMatrix type="matrix" values="0 0 0 0 0 0 0 0 0 0 0 0 0 0 0 0 0 0 0.25 0"/>
<feBlend mode="normal" in2="BackgroundImageFix" result="effect1_dropShadow_0_1"/>
<feBlend mode="normal" in="SourceGraphic" in2="effect1_dropShadow_0_1" result="shape"/>
</filter>
</defs>
</svg>
